<svg id="Layer_1" data-name="Layer 1" xmlns="http://www.w3.org/2000/svg" viewBox="0 0 612 232.09"><path d="M0,1.72H21l128.6,171.91a2.55,2.55,0,0,0,1.37.69c.69,0,1-.34,1.72-.69,0-.34.34-.68.34-1.37L152.66,1.72h8.6V229H156.1L11.69,38.85a1.85,1.85,0,0,0-1.38-1,2,2,0,0,0-2.06,2.06l-.34,189.8H0Z"/><path d="M302.55,232.09c-56,0-116.21-36.45-116.21-116.91C186.34,47.45,234.13,0,302.55,0,360,0,418.08,39.88,418.08,116.56,418.08,196,358.25,232.09,302.55,232.09Zm-67-202.52c-15.13,15.47-23,39.54-22,67.05,2.41,60.51,41.95,126.18,102.81,126.18,22,0,40.57-7.22,53.63-20.63,14.79-14.78,22.35-37.82,21.32-64.29C389.2,75.64,349.66,8.6,289.14,8.6,267.48,8.6,248.92,15.82,235.51,29.57Z"/><path d="M413.61,229.68l92.83-228H517.1l94.9,228H584.84a4.83,4.83,0,0,1-4.13-3.1l-34.38-81.14a1.89,1.89,0,0,0-1.72-1H456.93a1.9,1.9,0,0,0-1.72,1l-34.72,84.24Zm86.3-193.92a1.09,1.09,0,0,0-.69.34L458.31,136.84l82.86.69L500.6,36.1Z"/></svg>